<svg xmlns="http://www.w3.org/2000/svg" viewBox="0 0 2100 1680" width="2100mm" height="1680mm">
    <rect width="100%" height="100%" fill="white"/>

    <g fill="black">
        <rect x="140" y="0" width="140" height="140" />
        <rect x="420" y="0" width="140" height="140" />
        <rect x="700" y="0" width="140" height="140" />
        <rect x="980" y="0" width="140" height="140" />
        <rect x="1260" y="0" width="140" height="140" />
        <rect x="1540" y="0" width="140" height="140" />
        <rect x="1820" y="0" width="140" height="140" />
        <rect x="20" y="20" width="100" height="17" />
        <rect x="300" y="20" width="100" height="34" />
        <rect x="580" y="20" width="100" height="17" />
        <rect x="860" y="20" width="100" height="17" />
        <rect x="1140" y="20" width="100" height="17" />
        <rect x="1420" y="20" width="100" height="17" />
        <rect x="1700" y="20" width="100" height="17" />
        <rect x="1980" y="20" width="100" height="17" />
        <rect x="20" y="37" width="17" height="83" />
        <rect x="54" y="37" width="16" height="17" />
        <rect x="104" y="37" width="16" height="83" />
        <rect x="580" y="37" width="50" height="50" />
        <rect x="664" y="37" width="16" height="83" />
        <rect x="860" y="37" width="17" height="83" />
        <rect x="894" y="37" width="33" height="33" />
        <rect x="944" y="37" width="16" height="83" />
        <rect x="1140" y="37" width="34" height="33" />
        <rect x="1190" y="37" width="17" height="50" />
        <rect x="1224" y="37" width="16" height="83" />
        <rect x="1420" y="37" width="34" height="17" />
        <rect x="1504" y="37" width="16" height="83" />
        <rect x="1700" y="37" width="17" height="83" />
        <rect x="1734" y="37" width="33" height="17" />
        <rect x="1784" y="37" width="16" height="83" />
        <rect x="1980" y="37" width="17" height="83" />
        <rect x="2030" y="37" width="50" height="33" />
        <rect x="37" y="54" width="17" height="66" />
        <rect x="70" y="54" width="17" height="16" />
        <rect x="300" y="54" width="17" height="66" />
        <rect x="384" y="54" width="16" height="66" />
        <rect x="1207" y="54" width="17" height="16" />
        <rect x="1420" y="54" width="17" height="66" />
        <rect x="1454" y="54" width="33" height="16" />
        <rect x="1767" y="54" width="17" height="66" />
        <rect x="1997" y="54" width="17" height="16" />
        <rect x="54" y="70" width="16" height="50" />
        <rect x="334" y="70" width="33" height="17" />
        <rect x="647" y="70" width="17" height="17" />
        <rect x="877" y="70" width="17" height="50" />
        <rect x="910" y="70" width="34" height="17" />
        <rect x="1140" y="70" width="17" height="50" />
        <rect x="1174" y="70" width="16" height="17" />
        <rect x="1470" y="70" width="34" height="17" />
        <rect x="1717" y="70" width="33" height="17" />
        <rect x="2064" y="70" width="16" height="50" />
        <rect x="87" y="87" width="17" height="33" />
        <rect x="334" y="87" width="16" height="33" />
        <rect x="367" y="87" width="17" height="33" />
        <rect x="580" y="87" width="17" height="33" />
        <rect x="630" y="87" width="17" height="33" />
        <rect x="927" y="87" width="17" height="33" />
        <rect x="1207" y="87" width="17" height="33" />
        <rect x="1470" y="87" width="17" height="33" />
        <rect x="1997" y="87" width="33" height="33" />
        <rect x="2047" y="87" width="17" height="33" />
        <rect x="70" y="104" width="17" height="16" />
        <rect x="317" y="104" width="17" height="16" />
        <rect x="350" y="104" width="17" height="16" />
        <rect x="597" y="104" width="33" height="16" />
        <rect x="647" y="104" width="17" height="16" />
        <rect x="894" y="104" width="33" height="16" />
        <rect x="1157" y="104" width="50" height="16" />
        <rect x="1437" y="104" width="33" height="16" />
        <rect x="1487" y="104" width="17" height="16" />
        <rect x="1717" y="104" width="50" height="16" />
        <rect x="2030" y="104" width="17" height="16" />
        <rect x="0" y="140" width="140" height="140" />
        <rect x="280" y="140" width="140" height="140" />
        <rect x="560" y="140" width="140" height="140" />
        <rect x="840" y="140" width="140" height="140" />
        <rect x="1120" y="140" width="140" height="140" />
        <rect x="1400" y="140" width="140" height="140" />
        <rect x="1680" y="140" width="140" height="140" />
        <rect x="1960" y="140" width="140" height="140" />
        <rect x="160" y="160" width="100" height="17" />
        <rect x="440" y="160" width="100" height="17" />
        <rect x="720" y="160" width="100" height="17" />
        <rect x="1000" y="160" width="100" height="17" />
        <rect x="1280" y="160" width="100" height="34" />
        <rect x="1560" y="160" width="100" height="17" />
        <rect x="1840" y="160" width="100" height="17" />
        <rect x="160" y="177" width="17" height="83" />
        <rect x="244" y="177" width="16" height="83" />
        <rect x="440" y="177" width="17" height="83" />
        <rect x="490" y="177" width="50" height="17" />
        <rect x="720" y="177" width="17" height="83" />
        <rect x="804" y="177" width="16" height="83" />
        <rect x="1000" y="177" width="67" height="33" />
        <rect x="1084" y="177" width="16" height="83" />
        <rect x="1560" y="177" width="50" height="17" />
        <rect x="1627" y="177" width="33" height="50" />
        <rect x="1840" y="177" width="50" height="17" />
        <rect x="1907" y="177" width="33" height="33" />
        <rect x="227" y="194" width="17" height="16" />
        <rect x="524" y="194" width="16" height="66" />
        <rect x="754" y="194" width="33" height="66" />
        <rect x="1280" y="194" width="17" height="66" />
        <rect x="1347" y="194" width="33" height="16" />
        <rect x="1560" y="194" width="17" height="66" />
        <rect x="1594" y="194" width="16" height="33" />
        <rect x="1840" y="194" width="34" height="16" />
        <rect x="1890" y="194" width="17" height="16" />
        <rect x="210" y="210" width="17" height="17" />
        <rect x="457" y="210" width="17" height="50" />
        <rect x="490" y="210" width="17" height="17" />
        <rect x="1000" y="210" width="17" height="50" />
        <rect x="1034" y="210" width="16" height="17" />
        <rect x="1067" y="210" width="17" height="17" />
        <rect x="1314" y="210" width="16" height="17" />
        <rect x="1364" y="210" width="16" height="50" />
        <rect x="1577" y="210" width="17" height="17" />
        <rect x="1610" y="210" width="17" height="17" />
        <rect x="1840" y="210" width="17" height="50" />
        <rect x="1874" y="210" width="16" height="50" />
        <rect x="1924" y="210" width="16" height="50" />
        <rect x="194" y="227" width="16" height="33" />
        <rect x="227" y="227" width="17" height="33" />
        <rect x="507" y="227" width="17" height="33" />
        <rect x="737" y="227" width="17" height="33" />
        <rect x="1017" y="227" width="17" height="33" />
        <rect x="1297" y="227" width="17" height="33" />
        <rect x="1644" y="227" width="16" height="33" />
        <rect x="1857" y="227" width="17" height="33" />
        <rect x="1890" y="227" width="17" height="33" />
        <rect x="177" y="244" width="17" height="16" />
        <rect x="210" y="244" width="17" height="16" />
        <rect x="474" y="244" width="33" height="16" />
        <rect x="787" y="244" width="17" height="16" />
        <rect x="1034" y="244" width="50" height="16" />
        <rect x="1314" y="244" width="50" height="16" />
        <rect x="1577" y="244" width="67" height="16" />
        <rect x="1907" y="244" width="17" height="16" />
        <rect x="140" y="280" width="140" height="140" />
        <rect x="420" y="280" width="140" height="140" />
        <rect x="700" y="280" width="140" height="140" />
        <rect x="980" y="280" width="140" height="140" />
        <rect x="1260" y="280" width="140" height="140" />
        <rect x="1540" y="280" width="140" height="140" />
        <rect x="1820" y="280" width="140" height="140" />
        <rect x="20" y="300" width="100" height="17" />
        <rect x="300" y="300" width="100" height="17" />
        <rect x="580" y="300" width="100" height="17" />
        <rect x="860" y="300" width="100" height="17" />
        <rect x="1140" y="300" width="100" height="17" />
        <rect x="1420" y="300" width="100" height="17" />
        <rect x="1700" y="300" width="100" height="17" />
        <rect x="1980" y="300" width="100" height="17" />
        <rect x="20" y="317" width="50" height="17" />
        <rect x="87" y="317" width="33" height="33" />
        <rect x="300" y="317" width="34" height="83" />
        <rect x="350" y="317" width="50" height="17" />
        <rect x="580" y="317" width="34" height="83" />
        <rect x="647" y="317" width="33" height="83" />
        <rect x="860" y="317" width="34" height="17" />
        <rect x="927" y="317" width="33" height="33" />
        <rect x="1140" y="317" width="34" height="33" />
        <rect x="1224" y="317" width="16" height="83" />
        <rect x="1420" y="317" width="17" height="83" />
        <rect x="1454" y="317" width="66" height="17" />
        <rect x="1700" y="317" width="17" height="83" />
        <rect x="1734" y="317" width="16" height="83" />
        <rect x="1784" y="317" width="16" height="83" />
        <rect x="1980" y="317" width="17" height="83" />
        <rect x="2030" y="317" width="50" height="33" />
        <rect x="20" y="334" width="34" height="33" />
        <rect x="367" y="334" width="33" height="33" />
        <rect x="860" y="334" width="17" height="66" />
        <rect x="910" y="334" width="17" height="33" />
        <rect x="1207" y="334" width="17" height="33" />
        <rect x="1437" y="334" width="17" height="16" />
        <rect x="1487" y="334" width="33" height="33" />
        <rect x="1717" y="334" width="17" height="33" />
        <rect x="1750" y="334" width="34" height="16" />
        <rect x="54" y="350" width="16" height="17" />
        <rect x="104" y="350" width="16" height="50" />
        <rect x="614" y="350" width="33" height="50" />
        <rect x="877" y="350" width="17" height="17" />
        <rect x="944" y="350" width="16" height="50" />
        <rect x="1140" y="350" width="17" height="50" />
        <rect x="1174" y="350" width="16" height="17" />
        <rect x="1454" y="350" width="33" height="17" />
        <rect x="1767" y="350" width="17" height="17" />
        <rect x="2030" y="350" width="17" height="50" />
        <rect x="2064" y="350" width="16" height="50" />
        <rect x="20" y="367" width="17" height="33" />
        <rect x="87" y="367" width="17" height="33" />
        <rect x="350" y="367" width="17" height="33" />
        <rect x="384" y="367" width="16" height="33" />
        <rect x="927" y="367" width="17" height="33" />
        <rect x="1454" y="367" width="16" height="33" />
        <rect x="1504" y="367" width="16" height="33" />
        <rect x="1997" y="367" width="17" height="33" />
        <rect x="37" y="384" width="50" height="16" />
        <rect x="334" y="384" width="16" height="16" />
        <rect x="367" y="384" width="17" height="16" />
        <rect x="877" y="384" width="50" height="16" />
        <rect x="1157" y="384" width="67" height="16" />
        <rect x="1437" y="384" width="17" height="16" />
        <rect x="1470" y="384" width="34" height="16" />
        <rect x="1717" y="384" width="17" height="16" />
        <rect x="1750" y="384" width="34" height="16" />
        <rect x="2014" y="384" width="16" height="16" />
        <rect x="2047" y="384" width="17" height="16" />
        <rect x="0" y="420" width="140" height="140" />
        <rect x="280" y="420" width="140" height="140" />
        <rect x="560" y="420" width="140" height="140" />
        <rect x="840" y="420" width="140" height="140" />
        <rect x="1120" y="420" width="140" height="140" />
        <rect x="1400" y="420" width="140" height="140" />
        <rect x="1680" y="420" width="140" height="140" />
        <rect x="1960" y="420" width="140" height="140" />
        <rect x="160" y="440" width="100" height="17" />
        <rect x="440" y="440" width="100" height="17" />
        <rect x="720" y="440" width="100" height="17" />
        <rect x="1000" y="440" width="100" height="17" />
        <rect x="1280" y="440" width="100" height="17" />
        <rect x="1560" y="440" width="100" height="17" />
        <rect x="1840" y="440" width="100" height="17" />
        <rect x="160" y="457" width="17" height="83" />
        <rect x="210" y="457" width="17" height="50" />
        <rect x="244" y="457" width="16" height="83" />
        <rect x="440" y="457" width="17" height="83" />
        <rect x="524" y="457" width="16" height="83" />
        <rect x="720" y="457" width="17" height="83" />
        <rect x="754" y="457" width="33" height="17" />
        <rect x="804" y="457" width="16" height="83" />
        <rect x="1000" y="457" width="17" height="83" />
        <rect x="1034" y="457" width="16" height="17" />
        <rect x="1067" y="457" width="33" height="83" />
        <rect x="1280" y="457" width="17" height="83" />
        <rect x="1314" y="457" width="16" height="17" />
        <rect x="1347" y="457" width="33" height="17" />
        <rect x="1560" y="457" width="50" height="83" />
        <rect x="1627" y="457" width="33" height="17" />
        <rect x="1840" y="457" width="50" height="17" />
        <rect x="1924" y="457" width="16" height="83" />
        <rect x="507" y="474" width="17" height="33" />
        <rect x="737" y="474" width="17" height="66" />
        <rect x="770" y="474" width="34" height="16" />
        <rect x="1050" y="474" width="17" height="16" />
        <rect x="1297" y="474" width="17" height="66" />
        <rect x="1330" y="474" width="17" height="66" />
        <rect x="1364" y="474" width="16" height="66" />
        <rect x="1610" y="474" width="17" height="16" />
        <rect x="1644" y="474" width="16" height="66" />
        <rect x="1840" y="474" width="34" height="33" />
        <rect x="1890" y="474" width="34" height="16" />
        <rect x="194" y="490" width="16" height="50" />
        <rect x="227" y="490" width="17" height="50" />
        <rect x="457" y="490" width="17" height="50" />
        <rect x="490" y="490" width="17" height="17" />
        <rect x="1627" y="490" width="17" height="17" />
        <rect x="1907" y="490" width="17" height="17" />
        <rect x="177" y="507" width="17" height="33" />
        <rect x="754" y="507" width="33" height="33" />
        <rect x="1017" y="507" width="17" height="33" />
        <rect x="1050" y="507" width="17" height="33" />
        <rect x="1347" y="507" width="17" height="33" />
        <rect x="1840" y="507" width="17" height="33" />
        <rect x="210" y="524" width="17" height="16" />
        <rect x="474" y="524" width="50" height="16" />
        <rect x="787" y="524" width="17" height="16" />
        <rect x="1034" y="524" width="16" height="16" />
        <rect x="1314" y="524" width="16" height="16" />
        <rect x="1610" y="524" width="34" height="16" />
        <rect x="1857" y="524" width="67" height="16" />
        <rect x="140" y="560" width="140" height="140" />
        <rect x="420" y="560" width="140" height="140" />
        <rect x="700" y="560" width="140" height="140" />
        <rect x="980" y="560" width="140" height="140" />
        <rect x="1260" y="560" width="140" height="140" />
        <rect x="1540" y="560" width="140" height="140" />
        <rect x="1820" y="560" width="140" height="140" />
        <rect x="20" y="580" width="100" height="17" />
        <rect x="300" y="580" width="100" height="17" />
        <rect x="580" y="580" width="100" height="17" />
        <rect x="860" y="580" width="100" height="17" />
        <rect x="1140" y="580" width="100" height="34" />
        <rect x="1420" y="580" width="100" height="34" />
        <rect x="1700" y="580" width="100" height="17" />
        <rect x="1980" y="580" width="100" height="34" />
        <rect x="20" y="597" width="34" height="83" />
        <rect x="70" y="597" width="50" height="33" />
        <rect x="300" y="597" width="34" height="33" />
        <rect x="350" y="597" width="17" height="17" />
        <rect x="384" y="597" width="16" height="83" />
        <rect x="580" y="597" width="17" height="83" />
        <rect x="614" y="597" width="33" height="17" />
        <rect x="664" y="597" width="16" height="83" />
        <rect x="860" y="597" width="17" height="83" />
        <rect x="944" y="597" width="16" height="83" />
        <rect x="1700" y="597" width="67" height="17" />
        <rect x="1784" y="597" width="16" height="83" />
        <rect x="647" y="614" width="17" height="33" />
        <rect x="877" y="614" width="67" height="16" />
        <rect x="1140" y="614" width="17" height="66" />
        <rect x="1174" y="614" width="66" height="16" />
        <rect x="1420" y="614" width="17" height="66" />
        <rect x="1454" y="614" width="33" height="16" />
        <rect x="1504" y="614" width="16" height="66" />
        <rect x="1700" y="614" width="17" height="66" />
        <rect x="1734" y="614" width="50" height="16" />
        <rect x="1980" y="614" width="34" height="16" />
        <rect x="2030" y="614" width="50" height="16" />
        <rect x="54" y="630" width="33" height="17" />
        <rect x="104" y="630" width="16" height="50" />
        <rect x="300" y="630" width="17" height="50" />
        <rect x="334" y="630" width="16" height="50" />
        <rect x="630" y="630" width="17" height="17" />
        <rect x="910" y="630" width="34" height="17" />
        <rect x="1174" y="630" width="16" height="17" />
        <rect x="1207" y="630" width="33" height="50" />
        <rect x="1437" y="630" width="33" height="17" />
        <rect x="1487" y="630" width="17" height="17" />
        <rect x="1717" y="630" width="17" height="50" />
        <rect x="1980" y="630" width="17" height="50" />
        <rect x="2064" y="630" width="16" height="50" />
        <rect x="70" y="647" width="17" height="33" />
        <rect x="317" y="647" width="17" height="33" />
        <rect x="367" y="647" width="17" height="33" />
        <rect x="894" y="647" width="16" height="33" />
        <rect x="1454" y="647" width="33" height="33" />
        <rect x="1750" y="647" width="17" height="33" />
        <rect x="54" y="664" width="16" height="16" />
        <rect x="87" y="664" width="17" height="16" />
        <rect x="350" y="664" width="17" height="16" />
        <rect x="597" y="664" width="67" height="16" />
        <rect x="877" y="664" width="17" height="16" />
        <rect x="910" y="664" width="34" height="16" />
        <rect x="1157" y="664" width="50" height="16" />
        <rect x="1437" y="664" width="17" height="16" />
        <rect x="1487" y="664" width="17" height="16" />
        <rect x="1734" y="664" width="16" height="16" />
        <rect x="1767" y="664" width="17" height="16" />
        <rect x="1997" y="664" width="67" height="16" />
        <rect x="0" y="700" width="140" height="140" />
        <rect x="280" y="700" width="140" height="140" />
        <rect x="560" y="700" width="140" height="140" />
        <rect x="840" y="700" width="140" height="140" />
        <rect x="1120" y="700" width="140" height="140" />
        <rect x="1400" y="700" width="140" height="140" />
        <rect x="1680" y="700" width="140" height="140" />
        <rect x="1960" y="700" width="140" height="140" />
        <rect x="160" y="720" width="100" height="34" />
        <rect x="440" y="720" width="100" height="17" />
        <rect x="720" y="720" width="100" height="17" />
        <rect x="1000" y="720" width="100" height="17" />
        <rect x="1280" y="720" width="100" height="17" />
        <rect x="1560" y="720" width="100" height="17" />
        <rect x="1840" y="720" width="100" height="17" />
        <rect x="440" y="737" width="67" height="17" />
        <rect x="524" y="737" width="16" height="83" />
        <rect x="720" y="737" width="67" height="17" />
        <rect x="804" y="737" width="16" height="83" />
        <rect x="1000" y="737" width="50" height="17" />
        <rect x="1067" y="737" width="33" height="83" />
        <rect x="1280" y="737" width="50" height="33" />
        <rect x="1364" y="737" width="16" height="83" />
        <rect x="1560" y="737" width="50" height="17" />
        <rect x="1644" y="737" width="16" height="83" />
        <rect x="1840" y="737" width="50" height="17" />
        <rect x="1907" y="737" width="33" height="83" />
        <rect x="160" y="754" width="17" height="66" />
        <rect x="210" y="754" width="17" height="16" />
        <rect x="244" y="754" width="16" height="66" />
        <rect x="440" y="754" width="17" height="66" />
        <rect x="490" y="754" width="34" height="16" />
        <rect x="720" y="754" width="34" height="33" />
        <rect x="1000" y="754" width="17" height="66" />
        <rect x="1034" y="754" width="16" height="66" />
        <rect x="1347" y="754" width="17" height="66" />
        <rect x="1560" y="754" width="17" height="66" />
        <rect x="1594" y="754" width="50" height="16" />
        <rect x="1840" y="754" width="34" height="16" />
        <rect x="1890" y="754" width="17" height="16" />
        <rect x="457" y="770" width="17" height="17" />
        <rect x="490" y="770" width="17" height="17" />
        <rect x="754" y="770" width="33" height="50" />
        <rect x="1017" y="770" width="17" height="17" />
        <rect x="1280" y="770" width="17" height="50" />
        <rect x="1314" y="770" width="33" height="17" />
        <rect x="1594" y="770" width="16" height="50" />
        <rect x="1840" y="770" width="17" height="50" />
        <rect x="177" y="787" width="17" height="33" />
        <rect x="227" y="787" width="17" height="33" />
        <rect x="474" y="787" width="16" height="33" />
        <rect x="507" y="787" width="17" height="33" />
        <rect x="720" y="787" width="17" height="33" />
        <rect x="787" y="787" width="17" height="33" />
        <rect x="1050" y="787" width="17" height="33" />
        <rect x="1330" y="787" width="17" height="33" />
        <rect x="1577" y="787" width="17" height="33" />
        <rect x="1627" y="787" width="17" height="33" />
        <rect x="1874" y="787" width="33" height="33" />
        <rect x="194" y="804" width="33" height="16" />
        <rect x="457" y="804" width="17" height="16" />
        <rect x="490" y="804" width="17" height="16" />
        <rect x="737" y="804" width="17" height="16" />
        <rect x="1017" y="804" width="17" height="16" />
        <rect x="1297" y="804" width="33" height="16" />
        <rect x="1610" y="804" width="17" height="16" />
        <rect x="1857" y="804" width="17" height="16" />
        <rect x="140" y="840" width="140" height="140" />
        <rect x="420" y="840" width="140" height="140" />
        <rect x="700" y="840" width="140" height="140" />
        <rect x="980" y="840" width="140" height="140" />
        <rect x="1260" y="840" width="140" height="140" />
        <rect x="1540" y="840" width="140" height="140" />
        <rect x="1820" y="840" width="140" height="140" />
        <rect x="20" y="860" width="100" height="17" />
        <rect x="300" y="860" width="100" height="17" />
        <rect x="580" y="860" width="100" height="17" />
        <rect x="860" y="860" width="100" height="17" />
        <rect x="1140" y="860" width="100" height="17" />
        <rect x="1420" y="860" width="100" height="17" />
        <rect x="1700" y="860" width="100" height="17" />
        <rect x="1980" y="860" width="100" height="17" />
        <rect x="20" y="877" width="50" height="17" />
        <rect x="87" y="877" width="33" height="50" />
        <rect x="300" y="877" width="50" height="17" />
        <rect x="367" y="877" width="33" height="17" />
        <rect x="580" y="877" width="34" height="17" />
        <rect x="630" y="877" width="50" height="17" />
        <rect x="860" y="877" width="34" height="50" />
        <rect x="910" y="877" width="17" height="33" />
        <rect x="944" y="877" width="16" height="83" />
        <rect x="1140" y="877" width="34" height="83" />
        <rect x="1190" y="877" width="17" height="50" />
        <rect x="1224" y="877" width="16" height="83" />
        <rect x="1420" y="877" width="34" height="33" />
        <rect x="1470" y="877" width="17" height="83" />
        <rect x="1504" y="877" width="16" height="83" />
        <rect x="1700" y="877" width="34" height="50" />
        <rect x="1750" y="877" width="17" height="33" />
        <rect x="1784" y="877" width="16" height="83" />
        <rect x="1980" y="877" width="34" height="17" />
        <rect x="2030" y="877" width="17" height="83" />
        <rect x="2064" y="877" width="16" height="83" />
        <rect x="20" y="894" width="17" height="66" />
        <rect x="300" y="894" width="17" height="66" />
        <rect x="350" y="894" width="17" height="16" />
        <rect x="384" y="894" width="16" height="66" />
        <rect x="580" y="894" width="17" height="66" />
        <rect x="614" y="894" width="16" height="16" />
        <rect x="664" y="894" width="16" height="66" />
        <rect x="894" y="894" width="16" height="33" />
        <rect x="927" y="894" width="17" height="66" />
        <rect x="1174" y="894" width="16" height="66" />
        <rect x="1207" y="894" width="17" height="16" />
        <rect x="1454" y="894" width="16" height="33" />
        <rect x="1980" y="894" width="17" height="66" />
        <rect x="317" y="910" width="33" height="17" />
        <rect x="597" y="910" width="17" height="50" />
        <rect x="647" y="910" width="17" height="50" />
        <rect x="1420" y="910" width="17" height="50" />
        <rect x="1767" y="910" width="17" height="50" />
        <rect x="1997" y="910" width="17" height="50" />
        <rect x="2047" y="910" width="17" height="17" />
        <rect x="54" y="927" width="16" height="33" />
        <rect x="104" y="927" width="16" height="33" />
        <rect x="630" y="927" width="17" height="33" />
        <rect x="860" y="927" width="17" height="33" />
        <rect x="1437" y="927" width="17" height="33" />
        <rect x="1487" y="927" width="17" height="33" />
        <rect x="1700" y="927" width="17" height="33" />
        <rect x="1734" y="927" width="33" height="33" />
        <rect x="2014" y="927" width="16" height="33" />
        <rect x="37" y="944" width="17" height="16" />
        <rect x="70" y="944" width="34" height="16" />
        <rect x="317" y="944" width="67" height="16" />
        <rect x="614" y="944" width="16" height="16" />
        <rect x="877" y="944" width="50" height="16" />
        <rect x="1190" y="944" width="34" height="16" />
        <rect x="1454" y="944" width="16" height="16" />
        <rect x="1717" y="944" width="17" height="16" />
        <rect x="2047" y="944" width="17" height="16" />
        <rect x="0" y="980" width="140" height="140" />
        <rect x="280" y="980" width="140" height="140" />
        <rect x="560" y="980" width="140" height="140" />
        <rect x="840" y="980" width="140" height="140" />
        <rect x="1120" y="980" width="140" height="140" />
        <rect x="1400" y="980" width="140" height="140" />
        <rect x="1680" y="980" width="140" height="140" />
        <rect x="1960" y="980" width="140" height="140" />
        <rect x="160" y="1000" width="100" height="17" />
        <rect x="440" y="1000" width="100" height="17" />
        <rect x="720" y="1000" width="100" height="17" />
        <rect x="1000" y="1000" width="100" height="17" />
        <rect x="1280" y="1000" width="100" height="17" />
        <rect x="1560" y="1000" width="100" height="17" />
        <rect x="1840" y="1000" width="100" height="17" />
        <rect x="160" y="1017" width="34" height="17" />
        <rect x="210" y="1017" width="17" height="17" />
        <rect x="244" y="1017" width="16" height="83" />
        <rect x="440" y="1017" width="34" height="17" />
        <rect x="507" y="1017" width="33" height="50" />
        <rect x="720" y="1017" width="34" height="17" />
        <rect x="787" y="1017" width="33" height="50" />
        <rect x="1000" y="1017" width="34" height="83" />
        <rect x="1067" y="1017" width="33" height="17" />
        <rect x="1280" y="1017" width="34" height="33" />
        <rect x="1347" y="1017" width="33" height="17" />
        <rect x="1560" y="1017" width="34" height="17" />
        <rect x="1627" y="1017" width="33" height="17" />
        <rect x="1840" y="1017" width="34" height="17" />
        <rect x="1907" y="1017" width="33" height="17" />
        <rect x="160" y="1034" width="17" height="66" />
        <rect x="440" y="1034" width="17" height="66" />
        <rect x="474" y="1034" width="33" height="66" />
        <rect x="720" y="1034" width="17" height="66" />
        <rect x="754" y="1034" width="33" height="16" />
        <rect x="1034" y="1034" width="33" height="16" />
        <rect x="1084" y="1034" width="16" height="66" />
        <rect x="1314" y="1034" width="33" height="16" />
        <rect x="1364" y="1034" width="16" height="66" />
        <rect x="1560" y="1034" width="17" height="66" />
        <rect x="1594" y="1034" width="16" height="66" />
        <rect x="1644" y="1034" width="16" height="66" />
        <rect x="1840" y="1034" width="17" height="66" />
        <rect x="1924" y="1034" width="16" height="66" />
        <rect x="194" y="1050" width="33" height="17" />
        <rect x="457" y="1050" width="17" height="50" />
        <rect x="737" y="1050" width="17" height="50" />
        <rect x="1034" y="1050" width="16" height="17" />
        <rect x="1067" y="1050" width="17" height="50" />
        <rect x="1280" y="1050" width="17" height="50" />
        <rect x="1347" y="1050" width="17" height="17" />
        <rect x="1577" y="1050" width="17" height="50" />
        <rect x="1610" y="1050" width="17" height="17" />
        <rect x="1907" y="1050" width="17" height="17" />
        <rect x="177" y="1067" width="17" height="33" />
        <rect x="524" y="1067" width="16" height="33" />
        <rect x="804" y="1067" width="16" height="33" />
        <rect x="1050" y="1067" width="17" height="33" />
        <rect x="1314" y="1067" width="33" height="33" />
        <rect x="1627" y="1067" width="17" height="33" />
        <rect x="1857" y="1067" width="17" height="33" />
        <rect x="1890" y="1067" width="17" height="33" />
        <rect x="194" y="1084" width="50" height="16" />
        <rect x="507" y="1084" width="17" height="16" />
        <rect x="754" y="1084" width="50" height="16" />
        <rect x="1034" y="1084" width="16" height="16" />
        <rect x="1297" y="1084" width="17" height="16" />
        <rect x="1347" y="1084" width="17" height="16" />
        <rect x="1610" y="1084" width="17" height="16" />
        <rect x="1874" y="1084" width="16" height="16" />
        <rect x="1907" y="1084" width="17" height="16" />
        <rect x="140" y="1120" width="140" height="140" />
        <rect x="420" y="1120" width="140" height="140" />
        <rect x="700" y="1120" width="140" height="140" />
        <rect x="980" y="1120" width="140" height="140" />
        <rect x="1260" y="1120" width="140" height="140" />
        <rect x="1540" y="1120" width="140" height="140" />
        <rect x="1820" y="1120" width="140" height="140" />
        <rect x="20" y="1140" width="100" height="17" />
        <rect x="300" y="1140" width="100" height="17" />
        <rect x="580" y="1140" width="100" height="17" />
        <rect x="860" y="1140" width="100" height="17" />
        <rect x="1140" y="1140" width="100" height="17" />
        <rect x="1420" y="1140" width="100" height="17" />
        <rect x="1700" y="1140" width="100" height="17" />
        <rect x="1980" y="1140" width="100" height="17" />
        <rect x="20" y="1157" width="34" height="33" />
        <rect x="87" y="1157" width="33" height="17" />
        <rect x="300" y="1157" width="34" height="17" />
        <rect x="384" y="1157" width="16" height="83" />
        <rect x="580" y="1157" width="17" height="83" />
        <rect x="614" y="1157" width="66" height="33" />
        <rect x="860" y="1157" width="17" height="83" />
        <rect x="894" y="1157" width="66" height="17" />
        <rect x="1140" y="1157" width="17" height="83" />
        <rect x="1174" y="1157" width="66" height="17" />
        <rect x="1420" y="1157" width="17" height="83" />
        <rect x="1454" y="1157" width="33" height="17" />
        <rect x="1504" y="1157" width="16" height="83" />
        <rect x="1700" y="1157" width="17" height="83" />
        <rect x="1734" y="1157" width="66" height="17" />
        <rect x="1980" y="1157" width="17" height="83" />
        <rect x="2014" y="1157" width="66" height="17" />
        <rect x="104" y="1174" width="16" height="66" />
        <rect x="300" y="1174" width="17" height="66" />
        <rect x="367" y="1174" width="17" height="16" />
        <rect x="597" y="1174" width="17" height="16" />
        <rect x="877" y="1174" width="33" height="16" />
        <rect x="944" y="1174" width="16" height="66" />
        <rect x="1174" y="1174" width="16" height="66" />
        <rect x="1224" y="1174" width="16" height="66" />
        <rect x="1437" y="1174" width="33" height="16" />
        <rect x="1717" y="1174" width="17" height="33" />
        <rect x="1750" y="1174" width="50" height="16" />
        <rect x="1997" y="1174" width="17" height="33" />
        <rect x="2030" y="1174" width="17" height="16" />
        <rect x="2064" y="1174" width="16" height="66" />
        <rect x="20" y="1190" width="17" height="50" />
        <rect x="70" y="1190" width="17" height="17" />
        <rect x="317" y="1190" width="50" height="17" />
        <rect x="614" y="1190" width="16" height="50" />
        <rect x="647" y="1190" width="33" height="50" />
        <rect x="877" y="1190" width="17" height="50" />
        <rect x="910" y="1190" width="34" height="50" />
        <rect x="1207" y="1190" width="17" height="50" />
        <rect x="1437" y="1190" width="17" height="17" />
        <rect x="1767" y="1190" width="33" height="50" />
        <rect x="2014" y="1190" width="16" height="50" />
        <rect x="2047" y="1190" width="17" height="50" />
        <rect x="334" y="1207" width="16" height="33" />
        <rect x="597" y="1207" width="17" height="33" />
        <rect x="630" y="1207" width="17" height="33" />
        <rect x="1157" y="1207" width="17" height="33" />
        <rect x="1454" y="1207" width="16" height="33" />
        <rect x="1487" y="1207" width="17" height="33" />
        <rect x="1750" y="1207" width="17" height="33" />
        <rect x="37" y="1224" width="67" height="16" />
        <rect x="317" y="1224" width="17" height="16" />
        <rect x="350" y="1224" width="34" height="16" />
        <rect x="894" y="1224" width="16" height="16" />
        <rect x="1190" y="1224" width="17" height="16" />
        <rect x="1437" y="1224" width="17" height="16" />
        <rect x="1470" y="1224" width="17" height="16" />
        <rect x="1717" y="1224" width="33" height="16" />
        <rect x="1997" y="1224" width="17" height="16" />
        <rect x="2030" y="1224" width="17" height="16" />
        <rect x="0" y="1260" width="140" height="140" />
        <rect x="280" y="1260" width="140" height="140" />
        <rect x="560" y="1260" width="140" height="140" />
        <rect x="840" y="1260" width="140" height="140" />
        <rect x="1120" y="1260" width="140" height="140" />
        <rect x="1400" y="1260" width="140" height="140" />
        <rect x="1680" y="1260" width="140" height="140" />
        <rect x="1960" y="1260" width="140" height="140" />
        <rect x="160" y="1280" width="100" height="17" />
        <rect x="440" y="1280" width="100" height="17" />
        <rect x="720" y="1280" width="100" height="17" />
        <rect x="1000" y="1280" width="100" height="17" />
        <rect x="1280" y="1280" width="100" height="17" />
        <rect x="1560" y="1280" width="100" height="17" />
        <rect x="1840" y="1280" width="100" height="17" />
        <rect x="160" y="1297" width="17" height="83" />
        <rect x="194" y="1297" width="66" height="17" />
        <rect x="440" y="1297" width="17" height="83" />
        <rect x="474" y="1297" width="33" height="17" />
        <rect x="524" y="1297" width="16" height="83" />
        <rect x="720" y="1297" width="17" height="83" />
        <rect x="754" y="1297" width="33" height="17" />
        <rect x="804" y="1297" width="16" height="83" />
        <rect x="1000" y="1297" width="17" height="83" />
        <rect x="1034" y="1297" width="16" height="33" />
        <rect x="1084" y="1297" width="16" height="83" />
        <rect x="1280" y="1297" width="17" height="83" />
        <rect x="1314" y="1297" width="16" height="17" />
        <rect x="1364" y="1297" width="16" height="83" />
        <rect x="1560" y="1297" width="17" height="83" />
        <rect x="1594" y="1297" width="16" height="17" />
        <rect x="1644" y="1297" width="16" height="83" />
        <rect x="1840" y="1297" width="17" height="83" />
        <rect x="1874" y="1297" width="16" height="17" />
        <rect x="1924" y="1297" width="16" height="83" />
        <rect x="177" y="1314" width="17" height="16" />
        <rect x="210" y="1314" width="17" height="66" />
        <rect x="244" y="1314" width="16" height="66" />
        <rect x="490" y="1314" width="34" height="33" />
        <rect x="1330" y="1314" width="34" height="66" />
        <rect x="1577" y="1314" width="17" height="33" />
        <rect x="1627" y="1314" width="17" height="16" />
        <rect x="194" y="1330" width="16" height="17" />
        <rect x="474" y="1330" width="16" height="50" />
        <rect x="754" y="1330" width="16" height="50" />
        <rect x="787" y="1330" width="17" height="17" />
        <rect x="1017" y="1330" width="17" height="17" />
        <rect x="1297" y="1330" width="33" height="17" />
        <rect x="1610" y="1330" width="17" height="17" />
        <rect x="1890" y="1330" width="34" height="50" />
        <rect x="227" y="1347" width="17" height="33" />
        <rect x="490" y="1347" width="17" height="33" />
        <rect x="737" y="1347" width="17" height="33" />
        <rect x="770" y="1347" width="17" height="33" />
        <rect x="1050" y="1347" width="34" height="33" />
        <rect x="1297" y="1347" width="17" height="33" />
        <rect x="1594" y="1347" width="16" height="33" />
        <rect x="1874" y="1347" width="16" height="33" />
        <rect x="177" y="1364" width="33" height="16" />
        <rect x="457" y="1364" width="17" height="16" />
        <rect x="507" y="1364" width="17" height="16" />
        <rect x="787" y="1364" width="17" height="16" />
        <rect x="1017" y="1364" width="33" height="16" />
        <rect x="1314" y="1364" width="16" height="16" />
        <rect x="1577" y="1364" width="17" height="16" />
        <rect x="1610" y="1364" width="34" height="16" />
        <rect x="1857" y="1364" width="17" height="16" />
        <rect x="140" y="1400" width="140" height="140" />
        <rect x="420" y="1400" width="140" height="140" />
        <rect x="700" y="1400" width="140" height="140" />
        <rect x="980" y="1400" width="140" height="140" />
        <rect x="1260" y="1400" width="140" height="140" />
        <rect x="1540" y="1400" width="140" height="140" />
        <rect x="1820" y="1400" width="140" height="140" />
        <rect x="20" y="1420" width="100" height="17" />
        <rect x="300" y="1420" width="100" height="17" />
        <rect x="580" y="1420" width="100" height="17" />
        <rect x="860" y="1420" width="100" height="17" />
        <rect x="1140" y="1420" width="100" height="17" />
        <rect x="1420" y="1420" width="100" height="17" />
        <rect x="1700" y="1420" width="100" height="17" />
        <rect x="1980" y="1420" width="100" height="17" />
        <rect x="20" y="1437" width="17" height="83" />
        <rect x="54" y="1437" width="16" height="17" />
        <rect x="104" y="1437" width="16" height="83" />
        <rect x="300" y="1437" width="17" height="83" />
        <rect x="350" y="1437" width="50" height="17" />
        <rect x="580" y="1437" width="17" height="83" />
        <rect x="630" y="1437" width="50" height="17" />
        <rect x="860" y="1437" width="17" height="83" />
        <rect x="910" y="1437" width="17" height="83" />
        <rect x="944" y="1437" width="16" height="83" />
        <rect x="1140" y="1437" width="17" height="83" />
        <rect x="1190" y="1437" width="17" height="17" />
        <rect x="1224" y="1437" width="16" height="83" />
        <rect x="1420" y="1437" width="17" height="83" />
        <rect x="1470" y="1437" width="50" height="33" />
        <rect x="1700" y="1437" width="17" height="83" />
        <rect x="1750" y="1437" width="50" height="17" />
        <rect x="1980" y="1437" width="17" height="83" />
        <rect x="2030" y="1437" width="50" height="17" />
        <rect x="37" y="1454" width="17" height="16" />
        <rect x="334" y="1454" width="16" height="33" />
        <rect x="367" y="1454" width="33" height="16" />
        <rect x="614" y="1454" width="33" height="16" />
        <rect x="664" y="1454" width="16" height="66" />
        <rect x="894" y="1454" width="16" height="16" />
        <rect x="1157" y="1454" width="33" height="16" />
        <rect x="1717" y="1454" width="17" height="16" />
        <rect x="1784" y="1454" width="16" height="66" />
        <rect x="1997" y="1454" width="17" height="66" />
        <rect x="2030" y="1454" width="17" height="16" />
        <rect x="2064" y="1454" width="16" height="66" />
        <rect x="54" y="1470" width="16" height="50" />
        <rect x="87" y="1470" width="17" height="17" />
        <rect x="317" y="1470" width="17" height="17" />
        <rect x="350" y="1470" width="17" height="17" />
        <rect x="384" y="1470" width="16" height="50" />
        <rect x="597" y="1470" width="17" height="50" />
        <rect x="647" y="1470" width="17" height="50" />
        <rect x="877" y="1470" width="17" height="17" />
        <rect x="1190" y="1470" width="17" height="50" />
        <rect x="1454" y="1470" width="33" height="50" />
        <rect x="1504" y="1470" width="16" height="50" />
        <rect x="1734" y="1470" width="16" height="50" />
        <rect x="1767" y="1470" width="17" height="50" />
        <rect x="2014" y="1470" width="16" height="17" />
        <rect x="614" y="1487" width="16" height="33" />
        <rect x="894" y="1487" width="16" height="33" />
        <rect x="927" y="1487" width="17" height="33" />
        <rect x="1157" y="1487" width="17" height="33" />
        <rect x="1487" y="1487" width="17" height="33" />
        <rect x="1717" y="1487" width="17" height="33" />
        <rect x="1750" y="1487" width="17" height="33" />
        <rect x="37" y="1504" width="17" height="16" />
        <rect x="70" y="1504" width="34" height="16" />
        <rect x="317" y="1504" width="67" height="16" />
        <rect x="630" y="1504" width="17" height="16" />
        <rect x="877" y="1504" width="17" height="16" />
        <rect x="1174" y="1504" width="16" height="16" />
        <rect x="1207" y="1504" width="17" height="16" />
        <rect x="1437" y="1504" width="17" height="16" />
        <rect x="2014" y="1504" width="50" height="16" />
        <rect x="0" y="1540" width="140" height="140" />
        <rect x="280" y="1540" width="140" height="140" />
        <rect x="560" y="1540" width="140" height="140" />
        <rect x="840" y="1540" width="140" height="140" />
        <rect x="1120" y="1540" width="140" height="140" />
        <rect x="1400" y="1540" width="140" height="140" />
        <rect x="1680" y="1540" width="140" height="140" />
        <rect x="1960" y="1540" width="140" height="140" />
        <rect x="160" y="1560" width="100" height="17" />
        <rect x="440" y="1560" width="100" height="17" />
        <rect x="720" y="1560" width="100" height="17" />
        <rect x="1000" y="1560" width="100" height="17" />
        <rect x="1280" y="1560" width="100" height="17" />
        <rect x="1560" y="1560" width="100" height="17" />
        <rect x="1840" y="1560" width="100" height="17" />
        <rect x="160" y="1577" width="17" height="83" />
        <rect x="227" y="1577" width="33" height="17" />
        <rect x="440" y="1577" width="17" height="83" />
        <rect x="524" y="1577" width="16" height="83" />
        <rect x="720" y="1577" width="17" height="83" />
        <rect x="804" y="1577" width="16" height="83" />
        <rect x="1000" y="1577" width="17" height="83" />
        <rect x="1067" y="1577" width="33" height="83" />
        <rect x="1280" y="1577" width="17" height="83" />
        <rect x="1364" y="1577" width="16" height="83" />
        <rect x="1560" y="1577" width="50" height="17" />
        <rect x="1644" y="1577" width="16" height="83" />
        <rect x="1840" y="1577" width="17" height="83" />
        <rect x="1874" y="1577" width="66" height="17" />
        <rect x="194" y="1594" width="33" height="16" />
        <rect x="244" y="1594" width="16" height="66" />
        <rect x="474" y="1594" width="33" height="16" />
        <rect x="754" y="1594" width="16" height="66" />
        <rect x="1297" y="1594" width="17" height="33" />
        <rect x="1560" y="1594" width="34" height="66" />
        <rect x="1610" y="1594" width="17" height="16" />
        <rect x="1874" y="1594" width="16" height="33" />
        <rect x="1907" y="1594" width="33" height="33" />
        <rect x="177" y="1610" width="17" height="17" />
        <rect x="210" y="1610" width="17" height="50" />
        <rect x="457" y="1610" width="33" height="17" />
        <rect x="507" y="1610" width="17" height="17" />
        <rect x="1017" y="1610" width="33" height="17" />
        <rect x="1330" y="1610" width="34" height="17" />
        <rect x="457" y="1627" width="17" height="33" />
        <rect x="490" y="1627" width="17" height="33" />
        <rect x="1034" y="1627" width="16" height="33" />
        <rect x="1330" y="1627" width="17" height="33" />
        <rect x="1610" y="1627" width="17" height="33" />
        <rect x="1890" y="1627" width="17" height="33" />
        <rect x="1924" y="1627" width="16" height="33" />
        <rect x="177" y="1644" width="33" height="16" />
        <rect x="227" y="1644" width="17" height="16" />
        <rect x="474" y="1644" width="16" height="16" />
        <rect x="507" y="1644" width="17" height="16" />
        <rect x="737" y="1644" width="17" height="16" />
        <rect x="770" y="1644" width="34" height="16" />
        <rect x="1017" y="1644" width="17" height="16" />
        <rect x="1050" y="1644" width="17" height="16" />
        <rect x="1297" y="1644" width="33" height="16" />
        <rect x="1347" y="1644" width="17" height="16" />
        <rect x="1594" y="1644" width="16" height="16" />
        <rect x="1627" y="1644" width="17" height="16" />
        <rect x="1857" y="1644" width="33" height="16" />
        <rect x="1907" y="1644" width="17" height="16" />
    </g>
</svg>